<svg width="199" height="199" viewBox="0 0 199 199" fill="none" xmlns="http://www.w3.org/2000/svg">
<g clip-path="url(#clip0_510_153)">
<path d="M90.6909 175.349C89.7897 176.796 87.8663 177.202 86.4573 176.244L71.9779 166.394C70.5287 165.408 70.2297 163.395 71.3296 162.031L100.37 126.006C101.721 124.329 100.919 121.817 98.8451 121.235L59.1033 110.078C57.4266 109.608 56.5016 107.813 57.0912 106.174L62.4883 91.1742C63.0637 89.5749 64.8515 88.7726 66.4288 89.4058L104.195 104.568C106.243 105.39 108.448 103.794 108.307 101.591L105.584 59.1922C105.473 57.4633 106.846 56 108.578 56H126.602C128.334 56 129.706 57.4629 129.596 59.1915L126.881 101.632C126.738 103.868 129.007 105.466 131.064 104.577L169.154 88.1197C170.776 87.4188 172.649 88.2648 173.196 89.945L178.062 104.892C178.578 106.479 177.701 108.182 176.109 108.683L137.076 120.957C135.053 121.593 134.311 124.072 135.652 125.715L163.864 160.287C164.961 161.632 164.692 163.625 163.276 164.63L148.568 175.074C147.156 176.076 145.19 175.678 144.279 174.205L120.491 135.713C119.321 133.82 116.569 133.815 115.392 135.704L90.6909 175.349Z" fill="white"/>
<path d="M149.333 4.16663H49.6667C24.5377 4.16663 4.16669 24.5377 4.16669 49.6666V149.333C4.16669 174.462 24.5377 194.833 49.6667 194.833H149.333C174.462 194.833 194.833 174.462 194.833 149.333V49.6666C194.833 24.5377 174.462 4.16663 149.333 4.16663Z" stroke="white" stroke-width="7"/>
</g>
<defs>
<clipPath id="clip0_510_153">
<rect width="199" height="199" fill="white"/>
</clipPath>
</defs>
</svg>
